<?xml version="1.0" encoding="utf-8"?>
<!-- Uploaded to: SVG Repo, www.svgrepo.com, Generator: SVG Repo Mixer Tools -->
<svg fill="#4a545c" width="800px" height="800px" viewBox="0 0 32 32" version="1.1" xmlns="http://www.w3.org/2000/svg">
<title>alt-lens</title>
<path d="M0 14.048q0 2.848 1.12 5.44t2.976 4.48 4.48 2.976 5.472 1.12q4.064 0 7.52-2.24l5.312 5.312q0.864 0.864 2.112 0.864t2.144-0.864 0.864-2.112-0.864-2.144l-5.312-5.312q2.24-3.456 2.24-7.52 0-2.88-1.12-5.472t-2.976-4.448-4.48-3.008-5.44-1.12q-2.88 0-5.472 1.12t-4.48 3.008-2.976 4.448-1.12 5.472zM4 14.048q0-2.752 1.344-5.056t3.648-3.648 5.056-1.344q2.688 0 5.024 1.344t3.648 3.648 1.344 5.056q0 2.72-1.344 5.024t-3.648 3.648-5.024 1.344q-2.752 0-5.056-1.344t-3.648-3.648-1.344-5.024z"></path>
</svg>